<svg viewBox="0 0 1920 1739" fill="none" xmlns="http://www.w3.org/2000/svg">
    <g opacity="0.5">
        <g filter="url(#filter0_f_3384_1591)">
            <path fill-rule="evenodd" clip-rule="evenodd" d="M-84.6291 130.32C-109.57 130.32 -129.789 110.101 -129.789 85.16C-129.789 60.2188 -109.57 40 -84.6291 40C-59.6879 40 -39.4691 60.2188 -39.4691 85.16C-39.4691 110.101 -59.6879 130.32 -84.6291 130.32ZM1956.6 622.564C1956.6 647.505 1976.82 667.724 2001.76 667.724C2026.71 667.724 2046.92 647.505 2046.92 622.564C2046.92 597.623 2026.71 577.404 2001.76 577.404C1976.82 577.404 1956.6 597.623 1956.6 622.564ZM-284.839 702.347C-309.78 702.347 -329.999 682.128 -329.999 657.187C-329.999 632.246 -309.78 612.027 -284.839 612.027C-259.897 612.027 -239.678 632.246 -239.678 657.187C-239.678 682.128 -259.897 702.347 -284.839 702.347ZM-244 814.017C-244 857.794 -225.496 897.248 -195.883 924.986C-216.259 968.979 -227.631 1017.99 -227.631 1069.66C-227.631 1260 -73.3321 1414.3 117.005 1414.3C293.506 1414.3 439.019 1281.62 459.24 1110.55C527.563 1095.66 578.721 1034.81 578.721 962.025C578.721 878.069 510.661 810.008 426.704 810.008C426.622 810.008 426.539 810.008 426.457 810.008C403.637 778.542 366.573 758.077 324.73 758.077C309.115 758.077 294.165 760.927 280.373 766.135C231.755 739.912 176.118 725.03 117.005 725.03C89.6246 725.03 62.9903 728.222 37.4538 734.256C10.6773 690.895 -37.2783 662 -91.9828 662C-175.94 662 -244 730.06 -244 814.017ZM1845.12 1451.93C1923.52 1451.93 1995.8 1425.76 2053.7 1381.67C2076.72 1395.71 2103.77 1403.79 2132.71 1403.79C2216.66 1403.79 2284.72 1335.73 2284.72 1251.77C2284.72 1187.99 2245.44 1133.37 2189.74 1110.82C2189.75 1110.3 2189.75 1109.79 2189.75 1109.27C2189.76 1108.61 2189.76 1107.96 2189.76 1107.3C2189.76 916.961 2035.46 762.663 1845.12 762.663C1785.48 762.663 1729.38 777.813 1680.45 804.475C1657.61 780.756 1625.52 766 1589.99 766C1548.15 766 1511.08 786.465 1488.26 817.932L1488.02 817.931C1404.06 817.931 1336 885.992 1336 969.949C1336 1053.91 1404.06 1121.97 1488.02 1121.97C1492.31 1121.97 1496.57 1121.79 1500.77 1121.44C1508.19 1305.22 1659.52 1451.93 1845.12 1451.93ZM2211.01 495.364C2211.01 534.022 2242.34 565.362 2281 565.362C2319.66 565.362 2351 534.022 2351 495.364C2351 456.705 2319.66 425.366 2281 425.366C2242.34 425.366 2211.01 456.705 2211.01 495.364Z" fill="url(#paint0_linear_3384_1591)"/>
        </g>
        <g filter="url(#filter1_f_3384_1591)">
            <path fill-rule="evenodd" clip-rule="evenodd" d="M519.322 1392.25C528.235 1392.25 535.459 1399.48 535.459 1408.39C535.459 1417.3 528.235 1424.53 519.322 1424.53C510.41 1424.53 503.185 1417.3 503.185 1408.39C503.185 1399.48 510.41 1392.25 519.322 1392.25ZM-210.07 1216.36C-210.07 1207.45 -217.295 1200.22 -226.207 1200.22C-235.119 1200.22 -242.344 1207.45 -242.344 1216.36C-242.344 1225.27 -235.119 1232.49 -226.207 1232.49C-217.295 1232.49 -210.07 1225.27 -210.07 1216.36ZM309.014 1166.04C309.426 1168.74 309.64 1171.51 309.64 1174.32C309.64 1204.32 285.32 1228.64 255.32 1228.64C225.32 1228.64 201 1204.32 201 1174.32C201 1150.13 216.818 1129.63 238.677 1122.6C233.919 1114.52 231.189 1105.11 231.189 1095.06C231.189 1092.73 231.336 1090.43 231.621 1088.18C220.532 1086.06 210.219 1081.76 201.149 1075.74C195.457 1077.76 189.328 1078.86 182.942 1078.86C167.036 1078.86 152.727 1072.03 142.792 1061.13C132.858 1072.03 118.549 1078.86 102.643 1078.86C96.2562 1078.86 90.1272 1077.76 84.4355 1075.74C75.3653 1081.76 65.0526 1086.06 53.9638 1088.18C54.2486 1090.43 54.3954 1092.73 54.3954 1095.06C54.3954 1125.06 30.0755 1149.38 0.0752194 1149.38L-0.0130375 1149.38C-8.16752 1160.62 -21.4114 1167.94 -36.3633 1167.94C-59.4824 1167.94 -78.5179 1150.45 -80.9695 1127.98C-103.405 1151.58 -135.102 1166.3 -170.235 1166.3C-238.248 1166.3 -293.383 1111.16 -293.383 1043.15C-293.383 1042.73 -293.381 1042.31 -293.377 1041.89C-313.279 1033.83 -327.317 1014.32 -327.317 991.523C-327.317 961.523 -302.997 937.203 -272.997 937.203C-262.657 937.203 -252.993 940.092 -244.766 945.106C-224.075 929.353 -198.247 920 -170.235 920C-102.222 920 -47.0864 975.135 -47.0865 1043.15C-47.0865 1056.52 -49.2162 1069.38 -53.1547 1081.44C-52.9209 1081.34 -52.6861 1081.25 -52.4503 1081.16C-49.249 1069.03 -41.9577 1058.56 -32.141 1051.32C-40.5765 1038.26 -45.4726 1022.69 -45.4726 1005.99C-45.4726 959.775 -8.0107 922.313 38.2008 922.313C72.1222 922.313 101.329 942.499 114.465 971.513C125.569 973.978 135.394 979.841 142.792 987.955C150.191 979.841 160.016 973.978 171.119 971.513C184.255 942.499 213.462 922.314 247.384 922.314C277.17 922.314 303.32 937.877 318.148 961.316C339.39 943.9 366.561 933.447 396.174 933.447C464.187 933.447 519.322 988.583 519.322 1056.6C519.322 1124.61 464.187 1179.74 396.174 1179.74C375.051 1179.74 355.17 1174.43 337.798 1165.06C332.869 1166.92 327.527 1167.94 321.948 1167.94C317.451 1167.94 313.109 1167.27 309.014 1166.04ZM590.863 1187.85C599.775 1187.85 607 1195.07 607 1203.99C607 1212.9 599.775 1220.12 590.863 1220.12C581.951 1220.12 574.726 1212.9 574.726 1203.99C574.726 1195.07 581.951 1187.85 590.863 1187.85ZM-300.975 1261.81C-300.975 1248 -312.174 1236.8 -325.988 1236.8C-339.802 1236.8 -351 1248 -351 1261.81C-351 1275.62 -339.802 1286.82 -325.988 1286.82C-312.174 1286.82 -300.975 1275.62 -300.975 1261.81Z" fill="url(#paint1_linear_3384_1591)"/>
        </g>
        <g filter="url(#filter2_f_3384_1591)">
            <path fill-rule="evenodd" clip-rule="evenodd" d="M2124.11 1692.74C2124.11 1680.17 2113.92 1669.98 2101.35 1669.98C2088.79 1669.98 2078.6 1680.17 2078.6 1692.74C2078.6 1705.31 2088.79 1715.5 2101.35 1715.5C2113.92 1715.5 2124.11 1705.31 2124.11 1692.74ZM2091.36 1361.26C2091.36 1338.07 2081.06 1317.29 2064.79 1303.25C2087.7 1273.82 2101.35 1236.82 2101.35 1196.63C2101.35 1100.72 2023.6 1022.96 1927.69 1022.96C1885.93 1022.96 1847.61 1037.7 1817.65 1062.27C1796.74 1029.21 1759.86 1007.26 1717.86 1007.26C1670.02 1007.26 1628.83 1035.73 1610.31 1076.65C1594.65 1080.12 1580.79 1088.39 1570.36 1099.83C1559.93 1088.39 1546.07 1080.12 1530.41 1076.65C1511.89 1035.73 1470.7 1007.26 1422.86 1007.26C1357.69 1007.26 1304.86 1060.09 1304.86 1125.26C1304.86 1148.82 1311.77 1170.77 1323.66 1189.19C1304.76 1203.14 1292.49 1225.57 1292.49 1250.87C1292.49 1293.18 1326.79 1327.48 1369.1 1327.48C1411.4 1327.48 1445.7 1293.18 1445.7 1250.87C1445.7 1247.59 1445.49 1244.35 1445.09 1241.17C1460.73 1238.19 1475.27 1232.12 1488.06 1223.63C1496.09 1226.48 1504.73 1228.03 1513.74 1228.03C1536.17 1228.03 1556.35 1218.39 1570.36 1203.03C1584.37 1218.39 1604.55 1228.03 1626.98 1228.03C1635.99 1228.03 1644.63 1226.48 1652.66 1223.63C1665.45 1232.12 1679.99 1238.19 1695.63 1241.17C1695.23 1244.35 1695.02 1247.59 1695.02 1250.87C1695.02 1293.18 1729.32 1327.48 1771.62 1327.48C1771.67 1327.48 1771.71 1327.48 1771.75 1327.48C1783.25 1343.33 1801.93 1353.65 1823.01 1353.65C1830.88 1353.65 1838.41 1352.21 1845.36 1349.59C1869.86 1362.8 1897.9 1370.3 1927.69 1370.3C1931.37 1370.3 1935.02 1370.18 1938.64 1369.96C1942.96 1408.17 1975.39 1437.86 2014.76 1437.86C2057.07 1437.86 2091.36 1403.57 2091.36 1361.26ZM984.003 1028.26C941.696 1028.26 907.399 1062.56 907.399 1104.86C907.399 1147.17 941.696 1181.47 984.003 1181.47C1026.31 1181.47 1060.61 1147.17 1060.61 1104.86C1060.61 1062.56 1026.31 1028.26 984.003 1028.26ZM2202.24 1381.73C2214.81 1381.73 2225 1391.92 2225 1404.49C2225 1417.05 2214.81 1427.24 2202.24 1427.24C2189.67 1427.24 2179.49 1417.05 2179.49 1404.49C2179.49 1391.92 2189.67 1381.73 2202.24 1381.73Z" fill="url(#paint2_linear_3384_1591)"/>
        </g>
    </g>
    <defs>
        <filter id="filter0_f_3384_1591" x="-369.599" y="0.400002" width="2760.2" height="1491.13" filterUnits="userSpaceOnUse" color-interpolation-filters="sRGB">
            <feFlood flood-opacity="0" result="BackgroundImageFix"/>
            <feBlend mode="normal" in="SourceGraphic" in2="BackgroundImageFix" result="shape"/>
            <feGaussianBlur stdDeviation="19.8" result="effect1_foregroundBlur_3384_1591"/>
        </filter>
        <filter id="filter1_f_3384_1591" x="-375.2" y="895.8" width="1006.4" height="552.925" filterUnits="userSpaceOnUse" color-interpolation-filters="sRGB">
            <feFlood flood-opacity="0" result="BackgroundImageFix"/>
            <feBlend mode="normal" in="SourceGraphic" in2="BackgroundImageFix" result="shape"/>
            <feGaussianBlur stdDeviation="12.1" result="effect1_foregroundBlur_3384_1591"/>
        </filter>
        <filter id="filter2_f_3384_1591" x="884.099" y="983.963" width="1364.2" height="754.834" filterUnits="userSpaceOnUse" color-interpolation-filters="sRGB">
            <feFlood flood-opacity="0" result="BackgroundImageFix"/>
            <feBlend mode="normal" in="SourceGraphic" in2="BackgroundImageFix" result="shape"/>
            <feGaussianBlur stdDeviation="11.65" result="effect1_foregroundBlur_3384_1591"/>
        </filter>
        <linearGradient id="paint0_linear_3384_1591" x1="969.105" y1="590.952" x2="969.105" y2="1445.46" gradientUnits="userSpaceOnUse">
            <stop stop-color="#DADCFF"/>
            <stop offset="1" stop-color="white"/>
        </linearGradient>
        <linearGradient id="paint1_linear_3384_1591" x1="142.792" y1="1227.65" x2="142.792" y2="922.313" gradientUnits="userSpaceOnUse">
            <stop stop-color="#F5DAFF"/>
            <stop offset="1" stop-color="white"/>
        </linearGradient>
        <linearGradient id="paint2_linear_3384_1591" x1="1586.54" y1="1439.14" x2="1586.54" y2="1010.51" gradientUnits="userSpaceOnUse">
            <stop stop-color="#FFDADA"/>
            <stop offset="1" stop-color="white"/>
        </linearGradient>
    </defs>
</svg>